# xmcd
#
# Track frame offsets: 
#        150
#        17530
#        42712
#        62530
#        94134
#        112524
#        133930
#        153922
#
# Disc length: 2404 seconds
#
# Revision: 0
# Processed by: cddbd v1.5.2PL0 Copyright (c) Steve Scherf et al.
# Submitted via: ExactAudioCopy v0.99pb5
#
DISCID=5d096208
DTITLE=Black Sabbath  - Heaven And Hell (Japanese Deluxe Edition UICY-
DTITLE=94472) - Disc 1
DYEAR=1900
DGENRE=
TTITLE0=Neon Knights
TTITLE1=Children Of The Sea
TTITLE2=Lady Evil
TTITLE3=Heaven And Hell
TTITLE4=Wishing Well
TTITLE5=Die Young
TTITLE6=Walk Away
TTITLE7=Lonely Is The Word
EXTD=
EXTT0=
EXTT1=
EXTT2=
EXTT3=
EXTT4=
EXTT5=
EXTT6=
EXTT7=
PLAYORDER=
